<svg xmlns="http://www.w3.org/2000/svg" version="1.1" xmlns:xlink="http://www.w3.org/1999/xlink" xmlns:svgjs="http://svgjs.dev/svgjs" width="2000" height="2250" viewBox="0 0 2000 2250"><g transform="matrix(1,0,0,1,0,0)"><svg viewBox="0 0 320 360" data-background-color="#0a1627" preserveAspectRatio="xMidYMid meet" height="2250" width="2000" xmlns="http://www.w3.org/2000/svg" xmlns:xlink="http://www.w3.org/1999/xlink"><g id="tight-bounds" transform="matrix(1,0,0,1,0,0)"><svg viewBox="0 0 320 360" height="360" width="320"><g><svg></svg></g><g><svg viewBox="0 0 320 360" height="360" width="320"><g><path d="M39.474 120.804l2.852-5.236c22.696-41.686 66.871-69.977 117.674-69.972 50.817 0 95.006 28.305 117.697 70.005l2.852 5.241 8.173-31.337 31.03 7.961-2.654-4.792c-30.586-55.251-89.468-92.674-157.098-92.674-67.631 0-126.508 37.423-157.103 92.674l-2.654 4.787 31.063-7.956zM160 4.721c63.839 0 119.567 34.288 150.073 85.389l-24.731-6.341-6.417 24.608c-24.217-40.411-68.381-67.503-118.925-67.503-50.525 0-94.68 27.078-118.897 67.465l-6.412-24.575-24.764 6.341c30.506-51.101 86.238-85.384 150.073-85.384zM280.526 239.191l-2.852 5.236c-22.696 41.691-66.871 69.977-117.674 69.977-50.817 0-95.006-28.301-117.697-70.005l-2.852-5.236-8.173 31.332-31.035-7.961 2.654 4.792c30.591 55.246 89.468 92.674 157.103 92.674 67.631 0 126.513-37.427 157.103-92.674l2.654-4.787-31.063 7.956zM160 355.279c-63.839 0-119.567-34.288-150.073-85.389l24.727 6.346 6.421-24.609c24.217 40.402 68.381 67.499 118.925 67.499 50.529 0 94.68-27.078 118.901-67.47l6.408 24.575 24.764-6.341c-30.506 51.096-86.233 85.388-150.073 85.388z" fill="#915eff" fill-rule="nonzero" stroke="none" stroke-width="1" stroke-linecap="butt" stroke-linejoin="miter" stroke-miterlimit="10" stroke-dasharray="" stroke-dashoffset="0" font-family="none" font-weight="none" font-size="none" text-anchor="none" style="mix-blend-mode: normal" data-fill-palette-color="tertiary"></path></g><g transform="matrix(1,0,0,1,64,151.56398104265404)"><svg viewBox="0 0 192 56.87203791469194" height="56.87203791469194" width="192"><g><svg viewBox="0 0 192 56.87203791469194" height="56.87203791469194" width="192"><g><svg viewBox="0 0 192 56.87203791469194" height="56.87203791469194" width="192"><g><svg viewBox="0 0 192 56.87203791469194" height="56.87203791469194" width="192"><g><svg viewBox="0 0 192 56.87203791469194" height="56.87203791469194" width="192"><g><svg viewBox="0 0 192 56.87203791469194" height="56.87203791469194" width="192"><g transform="matrix(1,0,0,1,0,0)"><svg width="192" viewBox="-12.5 -31.25 105.5 31.25" height="56.87203791469194" data-palette-color="#915eff"><path d="M9.1-2.4L8.6-0.15-12.5-2.4 9.1-2.4ZM10.25-7.25L9.7-5-11.35-7.25 10.25-7.25ZM11.35-12.05L10.85-9.8-10.2-12.05 11.35-12.05ZM12.5-16.85L11.95-14.6-9.05-16.85 12.5-16.85ZM13.6-21.65L13.1-19.4-7.9-21.65 13.6-21.65ZM14.75-26.45L14.2-24.2-6.75-26.45 14.75-26.45ZM15.85-31.25L15.35-29-5.6-31.25 15.85-31.25ZM23.25-15.15L20 0 10.1 0 17.4-31.25 29.8-31.25 30.7-15.35 31.05-15.35 37.55-31.25 49.95-31.25 46.25 0 36.3 0 38.4-15.15 38.05-15.15 31.8 0 24.55 0 23.5-15.15 23.25-15.15ZM87.5 0L78 0 79.9-11.05 72.75-11.05 70.85 0 61.35 0 66.85-31.25 76.35-31.25 74.4-20.2 81.55-20.2 83.5-31.25 93-31.25 87.5 0ZM60.25-2.4L59.85-0.15 38.65-2.4 60.25-2.4ZM61.95-12.05L61.55-9.8 40.35-12.05 61.95-12.05ZM62.8-16.85L62.4-14.6 41.2-16.85 62.8-16.85ZM63.65-21.65L63.25-19.4 42.05-21.65 63.65-21.65ZM64.45-26.45L64.1-24.2 42.9-26.45 64.45-26.45ZM61.1-7.25L60.7-5 39.5-7.25 61.1-7.25ZM65.3-31.25L64.9-29 43.75-31.25 65.3-31.25Z" opacity="1" transform="matrix(1,0,0,1,0,0)" fill="#915eff" class="undefined-text-0" data-fill-palette-color="primary" id="text-0"></path></svg></g></svg></g></svg></g></svg></g><g></g></svg></g></svg></g></svg></g></svg></g><defs></defs></svg><rect width="320" height="360" fill="none" stroke="none" visibility="hidden"></rect></g></svg></g></svg>